<svg
          width="158"
          height="36"
          viewBox="0 0 237 54"
          fill="none"
          xmlns="http://www.w3.org/2000/svg"
        >
          <path
            d="M72.1826 45V23.5254H88.1055V27.1582H76.5186V31.9189H87.2998V35.5371H76.5186V41.3818H88.5156V45H72.1826ZM105.933 37.1045L110.137 38.4375C109.492 40.7812 108.418 42.5244 106.914 43.667C105.42 44.7998 103.521 45.3662 101.216 45.3662C98.3643 45.3662 96.0205 44.3945 94.1846 42.4512C92.3486 40.498 91.4307 37.832 91.4307 34.4531C91.4307 30.8789 92.3535 28.1055 94.1992 26.1328C96.0449 24.1504 98.4717 23.1592 101.479 23.1592C104.106 23.1592 106.24 23.9355 107.881 25.4883C108.857 26.4062 109.59 27.7246 110.078 29.4434L105.786 30.4688C105.532 29.3555 105 28.4766 104.189 27.832C103.389 27.1875 102.412 26.8652 101.26 26.8652C99.668 26.8652 98.374 27.4365 97.3779 28.5791C96.3916 29.7217 95.8984 31.5723 95.8984 34.1309C95.8984 36.8457 96.3867 38.7793 97.3633 39.9316C98.3398 41.084 99.6094 41.6602 101.172 41.6602C102.324 41.6602 103.315 41.2939 104.146 40.5615C104.976 39.8291 105.571 38.6768 105.933 37.1045ZM112.993 34.3945C112.993 32.207 113.32 30.3711 113.975 28.8867C114.463 27.793 115.127 26.8115 115.967 25.9424C116.816 25.0732 117.744 24.4287 118.75 24.0088C120.088 23.4424 121.631 23.1592 123.379 23.1592C126.543 23.1592 129.072 24.1406 130.967 26.1035C132.871 28.0664 133.823 30.7959 133.823 34.292C133.823 37.7588 132.881 40.4736 130.996 42.4365C129.111 44.3896 126.592 45.3662 123.438 45.3662C120.244 45.3662 117.705 44.3945 115.82 42.4512C113.936 40.498 112.993 37.8125 112.993 34.3945ZM117.461 34.248C117.461 36.6797 118.022 38.5254 119.146 39.7852C120.269 41.0352 121.694 41.6602 123.423 41.6602C125.151 41.6602 126.567 41.04 127.671 39.7998C128.784 38.5498 129.341 36.6797 129.341 34.1895C129.341 31.7285 128.799 29.8926 127.715 28.6816C126.641 27.4707 125.21 26.8652 123.423 26.8652C121.636 26.8652 120.195 27.4805 119.102 28.7109C118.008 29.9316 117.461 31.7773 117.461 34.248ZM137.339 45V23.7012H141.675V41.3818H152.456V45H137.339ZM155.562 45V23.5254H171.484V27.1582H159.897V31.9189H170.679V35.5371H159.897V41.3818H171.895V45H155.562ZM194.937 45H190.22L188.345 40.1221H179.761L177.988 45H173.389L181.753 23.5254H186.338L194.937 45ZM186.953 36.5039L183.994 28.5352L181.094 36.5039H186.953ZM197.266 45V23.5254H206.392C208.687 23.5254 210.352 23.7207 211.387 24.1113C212.432 24.4922 213.267 25.1758 213.892 26.1621C214.517 27.1484 214.829 28.2764 214.829 29.5459C214.829 31.1572 214.355 32.4902 213.408 33.5449C212.461 34.5898 211.045 35.249 209.16 35.5225C210.098 36.0693 210.869 36.6699 211.475 37.3242C212.09 37.9785 212.915 39.1406 213.95 40.8105L216.572 45H211.387L208.252 40.3271C207.139 38.6572 206.377 37.6074 205.967 37.1777C205.557 36.7383 205.122 36.4404 204.663 36.2842C204.204 36.1182 203.477 36.0352 202.48 36.0352H201.602V45H197.266ZM201.602 32.6074H204.81C206.89 32.6074 208.188 32.5195 208.706 32.3438C209.224 32.168 209.629 31.8652 209.922 31.4355C210.215 31.0059 210.361 30.4688 210.361 29.8242C210.361 29.1016 210.166 28.5205 209.775 28.0811C209.395 27.6318 208.853 27.3486 208.149 27.2314C207.798 27.1826 206.743 27.1582 204.985 27.1582H201.602V32.6074ZM218.975 45V23.5254H223.193L231.982 37.8662V23.5254H236.011V45H231.66L223.003 30.9961V45H218.975Z"
            fill="black"
          />
          <path
            d="M22.5194 50.081C21.6285 47.7512 22.161 47.0883 21.1953 45.6613C21.0097 45.3872 19.8411 43.6605 17.8853 43.3461C16.9394 43.1941 16.3711 43.4627 14.1338 44.1878C11.012 45.1998 10.8904 45.4043 9.94066 45.4507C9.49971 45.472 6.46238 45.6198 5.52674 43.7667C4.90788 42.541 5.35907 40.7356 6.40927 40.1887C7.33723 39.7053 8.086 40.5415 10.6024 40.8198C11.7953 40.9523 14.1402 41.0426 14.3539 40.3987C14.5382 39.8438 13.1053 38.8428 11.9265 38.2941C11.0677 37.8943 8.81558 36.7077 6.18847 37.2418C4.51494 37.5818 4.07399 38.3283 3.17867 38.0042C2.12526 37.6233 1.40913 36.1114 1.7752 34.9267C2.16686 33.6583 3.68361 33.1334 3.98184 33.0327C7.14524 31.9621 11.3755 34.0038 16.3398 36.4001C17.1852 36.8078 18.3736 37.4048 18.7672 37.0312C19.2216 36.6009 18.4248 35.0634 17.6639 34.0844C17.0649 33.3135 15.9289 32.1709 13.25 31.1375C11.2014 30.3471 9.181 29.4169 6.62942 29.6641C5.64066 29.7599 4.945 29.9876 3.83976 29.7214C3.29386 29.5902 1.63248 29.1904 1.11218 27.7695C0.819714 26.9711 0.831874 25.7022 1.55377 25.2438C2.4043 24.7036 3.55241 25.7583 6.62942 26.296C8.08153 26.55 8.96981 26.705 9.27764 26.296C9.8421 25.5459 8.42199 22.9463 6.18784 22.0863C4.41254 21.4027 3.28618 22.2664 2.43629 21.4552C1.50961 20.5702 1.71504 18.4607 2.87788 17.2455C4.49254 15.5578 7.25212 16.3269 7.51195 16.4038C9.77938 17.0721 11.4164 19.3195 11.7051 22.0863C12.1889 24.4521 14.0839 25.9683 15.8982 25.8749C17.0623 25.8151 18.357 25.0845 18.7672 23.9809C19.3912 22.2999 17.7394 20.3547 15.4573 17.6666C14.9235 17.0379 13.9079 15.8959 11.9265 13.6675C10.5563 12.1263 9.98993 11.5001 9.94066 10.5106C9.87538 9.20811 10.724 7.64984 11.9265 7.35381C13.6327 6.93326 15.6499 9.15135 16.5606 10.7212C17.8796 12.9949 17.1487 14.378 18.7672 15.9832C18.9726 16.1865 20.396 17.5983 21.6362 17.2461C23.0839 16.8347 23.4506 14.2565 23.4019 12.8264C23.3315 10.7609 22.2845 7.84149 19.8712 6.51211C18.7544 5.89685 17.8303 5.88953 17.4437 5.03868C17.0399 4.14998 17.4661 2.87308 18.3263 2.30238C19.6651 1.4143 21.8941 2.34267 22.7402 3.56524C23.1901 4.2159 23.0051 4.59737 23.6227 5.45922C23.7558 5.64477 24.8092 7.11454 25.6086 6.93265C26.5416 6.72024 25.9612 4.52291 27.5944 2.30238C28.0008 1.75 28.9832 0.414507 30.2426 0.408404C32.0006 0.399858 33.9468 2.98417 33.7734 5.24925C33.5942 7.59063 31.3088 7.51068 29.3595 11.1424C28.6952 12.3796 29.2187 11.9084 27.1528 17.8772C26.8232 18.8294 26.2524 20.7905 26.1801 23.1288C26.1423 24.3471 26.4284 24.6902 26.6735 24.7768C27.483 25.0619 28.5486 22.5008 29.8823 22.6582C30.8327 22.7705 31.7741 24.2995 31.4867 25.4836C31.1936 26.691 29.8337 26.6702 27.5374 28.544C26.3612 29.5041 25.231 30.449 24.7254 31.9792C24.3875 33.001 24.0873 35.0036 25.167 35.9783C26.6479 37.3157 30.1729 36.5484 32.1126 34.7997C35.5653 31.6868 34.5375 24.9746 33.7734 19.9824C33.216 16.3403 32.327 13.748 33.5526 10.3007C33.9155 9.27953 34.8402 6.67874 36.6424 6.51211C37.7444 6.41017 39.073 7.22807 39.2906 8.19612C39.5376 9.29662 38.1719 9.80811 37.9665 11.5635C37.8167 12.8429 38.3441 14.2656 38.849 14.2998C39.7565 14.3615 39.5242 9.86976 42.8214 7.14384C44.1013 6.08546 46.5339 4.77988 48.1178 5.67041C49.3952 6.38881 49.808 8.3597 49.4419 9.88013C48.793 12.5755 46.0392 12.4168 42.8214 15.7733C39.7008 19.0278 38.8445 22.7712 39.0698 25.455C39.1165 26.0141 39.2804 27.9617 40.1731 28.1912C41.1913 28.4531 42.5974 26.3351 43.0422 25.6655C45.8741 21.4003 44.3605 18.9173 46.7937 16.1944C48.5363 14.2443 51.415 13.1664 52.3109 13.8793C53.0437 14.4622 52.6181 16.3751 51.8693 17.6678C50.782 19.5447 48.9959 19.5594 48.1178 21.667C47.9565 22.0546 47.6314 22.8633 48.0263 23.3657C48.3924 23.8314 49.191 23.7972 49.6627 23.7715C51.614 23.6647 52.0127 22.5709 53.8558 22.2981C54.7364 22.1675 56.3191 22.1693 56.7248 22.9292C57.1991 23.8173 55.802 25.2432 55.6791 25.3664C54.6475 26.3992 53.3989 26.7032 52.7167 26.8966C50.1318 27.6291 50.5075 28.234 46.6689 29.957C42.3075 31.9145 41.8812 31.1076 38.8497 32.8215C37.1173 33.8012 34.3532 35.3716 34.4358 37.4518C34.471 38.3429 35.0367 39.4459 35.9807 39.7669C37.5902 40.315 38.89 38.111 43.0422 35.7678C43.8492 35.3124 46.299 33.9855 49.6627 33.2421C52.1932 32.683 54.5892 32.1532 56.0625 33.4526C57.0679 34.3395 57.5485 35.9954 56.945 37.0306C56.0746 38.5242 53.0194 38.6072 51.207 38.2935C49.6269 38.02 48.8736 37.4243 47.897 37.8723C47.1329 38.2227 46.5006 39.0888 46.5729 39.9769C46.6683 41.1464 47.9367 41.7805 48.1178 41.8709C49.3037 42.4641 50.0499 41.9008 50.766 42.502C51.3951 43.0312 51.5986 44.1225 51.2076 44.8171C50.4371 46.1856 47.513 45.743 47.0145 45.6588C45.2514 45.3616 44.9979 44.6883 42.3804 43.5543C41.4185 43.1374 38.8657 41.5858 37.3048 42.502C36.4984 42.975 36.0997 44.0059 36.1778 44.9056C36.2597 45.8468 36.8837 46.8771 37.7988 47.1323C38.9079 47.4417 39.4615 46.3376 40.8362 46.2899C42.7759 46.2228 45.0811 48.2932 44.8085 49.8679C44.5883 51.1387 42.3523 51.8675 40.8362 51.9725C38.0868 52.1635 35.9659 50.427 35.5397 50.0785C33.4278 48.3493 33.8022 46.9516 31.5674 45.6588C31.122 45.4012 29.3313 44.3648 28.2574 45.0277C27.4133 45.5483 27.3903 46.8844 27.3749 47.764C27.341 49.6867 28.1339 50.1414 27.8165 51.342C27.4958 52.553 26.2485 53.7529 25.1683 53.6571C23.8422 53.5418 23.0621 51.5001 22.5194 50.081Z"
            fill="#BDD526"
          />
        </svg>