<svg
            width="64"
            height="64"
            viewBox="0 0 96 96"
            fill="none"
            xmlns="http://www.w3.org/2000/svg"
          >
            <g clip-path="url(#clip0_261_208)">
              <path
                d="M13.41 67.95C13.41 62.84 13.41 57.73 13.41 52.62C13.41 47.69 15.93 45.59 20.7 46.55C22.51 41.64 25.71 40.42 29.72 43.13C34.74 40.5 37.71 41.81 38.92 46.99C40.29 47.1 41.59 47.15 42.86 47.34C43.76 47.48 44.16 48.07 43.99 49.05C43.77 50.29 43.66 51.55 43.46 53.09C43.3 52.37 43.25 51.93 43.1 51.53C42.69 50.43 41.88 49.83 40.7 50.02C39.55 50.2 38.84 50.92 38.83 52.13C38.8 54.54 38.73 56.96 38.85 59.36C38.92 60.8 38.56 61.61 37.03 61.65C36.69 61.65 36.36 61.76 35.81 61.85C35.81 61.29 35.81 60.82 35.81 60.35C35.81 56.31 35.81 52.28 35.81 48.24C35.81 47.75 35.83 47.25 35.75 46.77C35.55 45.51 34.57 44.67 33.43 44.75C32.26 44.82 31.4 45.71 31.38 47.03C31.34 50.43 31.36 53.82 31.36 57.22C31.36 58.5 31.36 59.78 31.36 61.06C31.36 62.9067 30.3733 64.1433 28.4 64.77C28.37 64.33 28.32 63.91 28.32 63.49C28.32 58.37 28.32 53.25 28.32 48.13C28.32 47.79 28.33 47.44 28.31 47.1C28.22 45.7 27.38 44.8 26.15 44.75C24.89 44.71 23.9 45.66 23.87 47.13C23.82 50.03 23.85 52.94 23.85 55.84C23.85 58.55 23.87 61.25 23.85 63.96C23.82 66.36 24.5 68.96 21.66 70.79C23.68 71.29 24.97 71.55 26.41 70.09C29.89 66.57 34.47 65.1 39.21 64.17C41.37 63.75 43.58 63.56 45.7 63.27C45.87 60.49 45.98 57.75 46.23 55.02C46.54 51.54 47.16 48.08 47.27 44.6C47.37 41.43 47.3 38.18 46.72 35.07C45.64 29.23 41.22 26.68 35.91 25.57C31.01 24.55 27.45 26.88 24.77 30.83C24.36 31.44 23.98 32.07 23.59 32.69C27.76 36.5 34.68 36.98 38.85 32.65C36.68 31.66 34.55 31.85 32.41 32.56C31.94 32.71 31.5 32.93 31.04 33.1C30.09 33.45 29.21 33.19 29.05 32.24C28.95 31.67 29.43 30.63 29.93 30.38C33.84 28.48 37.79 28.35 41.63 30.66C43.36 31.7 43.44 32.6 42.03 34.04C35.35 40.81 27.11 39.69 20.92 34.59C20.48 34.23 20.11 33.17 20.32 32.71C22.21 28.59 24.79 25.02 29.18 23.28C30.7 22.68 32.4 22.52 34.1 22.14C33.96 21.95 33.76 21.65 33.54 21.38C29.12 16.02 28.65 10.11 32.21 4.15C32.81 3.14 33.51 2.18 34.24 1.25C35.44 -0.289998 35.99 -0.389998 37.56 0.710002C41.92 3.75 44.81 7.75 44.7 13.23C44.66 15.48 43.88 17.75 43.21 19.94C42.73 21.5 41.63 21.72 40.35 20.71C36.86 17.95 35.77 14.19 36.11 9.95C36.15 9.42 37.04 8.63 37.61 8.55C38.55 8.42 39.08 9.2 39.04 10.19C38.96 12.29 39.18 14.32 40.28 16.17C40.45 16.45 40.68 16.69 40.91 16.98C43.1 12.72 40.95 6.47 36.4 3.65C32.35 8 32.02 13.51 34.35 17.33C36.64 21.09 40.12 23.39 43.89 25.55C44.06 23.96 44.1 22.49 44.39 21.06C45.63 15.04 49.59 11.3 55.9 10.14C57.06 9.93 58.24 9.86 59.41 9.73C60.4 9.62 61.05 10.08 61.28 11.01C63.03 18.06 61.55 26.26 52.42 29.87C50.58 30.6 49.71 30.08 49.51 28.13C49.06 23.88 50.67 20.44 53.73 17.59C54.48 16.89 55.29 16.64 56.05 17.49C56.79 18.31 56.53 19.11 55.78 19.81C54.23 21.25 53.08 22.93 52.64 25.03C52.55 25.44 52.53 25.86 52.46 26.35C57.39 24.55 60.26 18.04 58.5 12.9C52.19 12.9 47.7 16.9 47.14 23.13C46.9 25.78 47.1 28.28 48.43 30.81C50.8 35.32 50.65 40.33 50.3 45.26C49.91 50.65 49.36 56.03 48.89 61.42C48.84 62 48.89 62.59 48.89 63.21C51.34 63.53 53.68 63.73 55.98 64.15C61.24 65.12 66.09 66.92 70.03 70.81C70.66 71.43 72.18 71.14 73.43 71.29C73.36 70.83 73.39 70.65 73.32 70.59C71.49 69.01 71.61 66.92 71.63 64.78C71.69 59.22 71.65 53.66 71.65 48.09C71.65 47.79 71.66 47.5 71.65 47.2C71.57 45.71 70.7 44.75 69.42 44.75C68.15 44.75 67.22 45.71 67.21 47.19C67.18 50.93 67.2 54.67 67.19 58.41C67.19 60.51 67.19 62.6 67.19 64.74C64.31 64.03 64.15 63.84 64.15 61.27C64.15 56.64 64.17 52.02 64.15 47.39C64.14 45.35 62.57 44.19 61 44.99C59.94 45.53 59.7 46.5 59.7 47.6C59.7 51.83 59.7 56.07 59.7 60.3C59.7 60.78 59.7 61.26 59.7 61.87C58.8 61.69 58.04 61.66 57.4 61.36C57.05 61.19 56.73 60.57 56.72 60.15C56.66 57.74 56.7 55.33 56.69 52.92C56.69 50.31 55.44 49.46 53.01 50.38C52.83 46.89 53.24 46.52 56.58 47.3C56.82 45.11 57.6 43.2 59.76 42.23C61.92 41.26 63.88 41.76 65.65 43.19C69.19 40.39 73.74 41.81 74.74 46.5C75.6 46.41 76.47 46.18 77.31 46.25C80.09 46.47 82.06 48.66 82.09 51.49C82.12 54.25 82.1 57 82.1 59.76C82.1 62.46 82.1 65.17 82.39 68.02C82.58 67.62 82.86 67.24 82.95 66.83C83.11 66.06 83.11 65.26 83.28 64.49C83.98 61.19 86.77 59.28 90.19 59.73C93.36 60.15 95.92 62.95 95.48 66.11C93.94 77.18 87.92 89.96 74.56 94.76C73.34 95.2 71.98 95.43 70.68 95.44C63.88 95.51 57.09 95.47 50.29 95.47C42.68 95.47 35.07 95.26 27.47 95.54C22.43 95.73 18.22 94.01 14.27 91.28C8.16001 87.06 4.37001 81.1 2.03001 74.18C1.24001 71.86 0.630005 69.46 0.170005 67.06C-0.519995 63.38 1.76001 60.24 5.29001 59.73C8.97001 59.2 11.8 61.36 12.4 65.14C12.55 66.1 12.71 67.06 12.87 68.02C13.07 67.99 13.27 67.97 13.46 67.94L13.41 67.95ZM49.22 92.36C49.7 92.41 50.08 92.47 50.47 92.47C57.36 92.47 64.26 92.48 71.15 92.46C71.77 92.46 72.42 92.31 73.02 92.11C80.19 89.62 85.38 84.81 88.53 78.02C90.19 74.44 91.25 70.57 92.33 66.75C92.93 64.62 91.71 63.03 89.74 62.72C87.79 62.41 86.38 63.59 86.09 65.82C85.99 66.55 86.03 67.29 85.94 68.02C85.89 68.42 85.82 68.95 85.55 69.17C83.92 70.46 83.07 72.16 82.76 74.07C79.75 74.07 76.86 73.97 73.97 74.09C66.18 74.42 59.19 76.78 53.7 82.61C51.18 85.29 49.43 88.36 49.24 92.37L49.22 92.36ZM13.18 74.26C12.26 72.61 11.75 71.1 10.76 70.05C9.83 69.07 9.34 68.17 9.5 66.87C9.53 66.58 9.45 66.28 9.42 65.99C9.14001 63.63 7.78001 62.41 5.78001 62.71C3.75001 63.01 2.64001 64.58 3.15001 66.86C3.71001 69.39 4.35001 71.94 5.27001 74.36C8.25001 82.22 13.17 88.39 21.18 91.61C22.47 92.13 23.93 92.42 25.31 92.44C31.66 92.53 38.01 92.48 44.36 92.48H46.23C46.14 89.56 45.23 87.12 43.64 84.94C38.77 78.25 31.96 75 23.9 74.32C20.24 74.01 16.54 74.27 13.18 74.27V74.26ZM28.79 71.95C37.06 74.03 43.54 78.3 47.73 85.76C51.99 78.26 58.45 74.01 66.54 71.98C59.57 65.09 38.03 64.1 28.79 71.95ZM20.84 70.92C20.84 70.03 20.84 69.21 20.84 68.39C20.84 62.79 20.85 57.18 20.83 51.58C20.83 50.19 19.94 49.3 18.68 49.26C17.45 49.22 16.52 50.12 16.4 51.48C16.39 51.63 16.4 51.77 16.4 51.92C16.4 57.92 16.4 63.91 16.4 69.91C16.4 70.24 16.48 70.56 16.52 70.92H20.84ZM78.98 70.92C79.02 70.58 79.07 70.3 79.07 70.01C79.07 63.96 79.09 57.92 79.07 51.87C79.07 49.92 77.62 48.79 76.01 49.42C74.89 49.86 74.6 50.8 74.6 51.92C74.61 57.92 74.6 63.91 74.6 69.91C74.6 70.24 74.68 70.56 74.73 70.91H78.97L78.98 70.92Z"
                fill="#F4EFE1"
              />
            </g>
            <defs>
              <clipPath id="clip0_261_208">
                <rect width="95.49" height="95.57" fill="white" />
              </clipPath>
            </defs>
          </svg>